<svg xmlns="http://www.w3.org/2000/svg" xmlns:xlink="http://www.w3.org/1999/xlink" width="5382" zoomAndPan="magnify" viewBox="0 0 4036.5 572.249966" height="763" preserveAspectRatio="xMidYMid meet" version="1.2"><defs><clipPath id="dfc5c586f5"><path d="M 3 0 L 4033 0 L 4033 571.5 L 3 571.5 Z M 3 0 "/></clipPath><clipPath id="6d9058242c"><path d="M 3.890625 0 L 4032.109375 0 L 4032.109375 571.5 L 3.890625 571.5 Z M 3.890625 0 "/></clipPath><clipPath id="dc445de53a"><path d="M 0.890625 0 L 4029.109375 0 L 4029.109375 571.152344 L 0.890625 571.152344 Z M 0.890625 0 "/></clipPath><clipPath id="8fe034ef30"><rect x="0" width="4030" y="0" height="572"/></clipPath></defs><g id="4c1df2de36"><g clip-rule="nonzero" clip-path="url(#dfc5c586f5)"><path style=" stroke:none;fill-rule:nonzero;fill:#ffffff;fill-opacity:1;" d="M 3.890625 0 L 4032.109375 0 L 4032.109375 571.5 L 3.890625 571.5 Z M 3.890625 0 "/></g><g clip-rule="nonzero" clip-path="url(#6d9058242c)"><g transform="matrix(1,0,0,1,3,-0.000000000000014175)"><g clip-path="url(#8fe034ef30)"><g clip-rule="nonzero" clip-path="url(#dc445de53a)"><path style=" stroke:none;fill-rule:nonzero;fill:#ffffff;fill-opacity:1;" d="M 0.890625 0 L 4029.652344 0 L 4029.652344 571.152344 L 0.890625 571.152344 Z M 0.890625 0 "/></g><path style=" stroke:none;fill-rule:nonzero;fill:#2155c9;fill-opacity:1;" d="M 1054.175781 271.777344 C 1054.175781 289.371094 1052.972656 305.132812 1050.628906 319.121094 L 693.738281 319.121094 C 696.589844 354.4375 708.9375 382.09375 730.71875 402.160156 C 752.503906 422.097656 779.226562 432.035156 811.015625 432.035156 C 856.734375 432.035156 889.34375 412.414062 908.785156 373.042969 L 1041.765625 373.042969 C 1027.707031 420.007812 1000.730469 458.554688 960.710938 488.742188 C 920.691406 518.996094 871.613281 534.0625 813.546875 534.0625 C 766.5625 534.0625 724.453125 523.679688 687.152344 502.921875 C 649.792969 482.035156 620.664062 452.476562 599.769531 414.3125 C 578.996094 376.210938 568.613281 332.15625 568.613281 282.15625 C 568.613281 231.710938 578.808594 187.40625 599.261719 149.242188 C 619.839844 111.140625 648.652344 81.773438 685.632812 61.136719 C 722.742188 40.570312 765.421875 30.25 813.546875 30.25 C 859.964844 30.25 901.503906 40.316406 938.167969 60.378906 C 974.957031 80.316406 1003.515625 108.671875 1023.78125 145.445312 C 1044.042969 182.089844 1054.175781 224.179688 1054.175781 271.777344 Z M 926.261719 236.332031 C 925.753906 204.8125 914.230469 179.496094 891.816406 160.382812 C 869.523438 141.140625 842.234375 131.519531 810 131.519531 C 779.414062 131.519531 753.644531 140.824219 732.746094 159.367188 C 711.976562 177.976562 699.183594 203.609375 694.5 236.332031 Z M 926.261719 236.332031 "/><path style=" stroke:none;fill-rule:nonzero;fill:#2155c9;fill-opacity:1;" d="M 1594.714844 280.382812 C 1594.714844 231.144531 1604.46875 187.40625 1624.097656 149.242188 C 1643.855469 111.140625 1670.578125 81.773438 1704.390625 61.136719 C 1738.140625 40.570312 1775.882812 30.25 1817.613281 30.25 C 1854.085938 30.25 1885.875 37.59375 1913.105469 52.277344 C 1940.460938 66.960938 1962.371094 85.441406 1978.960938 107.722656 L 1978.960938 38.351562 L 2103.074219 38.351562 L 2103.074219 526.214844 L 1978.960938 526.214844 L 1978.960938 454.820312 C 1963.066406 477.792969 1941.09375 496.78125 1913.105469 511.78125 C 1885.242188 526.59375 1853.136719 534.0625 1816.851562 534.0625 C 1775.628906 534.0625 1738.140625 523.554688 1704.390625 502.414062 C 1670.578125 481.339844 1643.855469 451.527344 1624.097656 413.046875 C 1604.46875 374.5625 1594.714844 330.386719 1594.714844 280.382812 Z M 1978.960938 282.15625 C 1978.960938 252.28125 1973.007812 226.648438 1961.230469 205.191406 C 1949.390625 183.800781 1933.496094 167.34375 1913.609375 155.824219 C 1893.664062 144.367188 1872.199219 138.609375 1849.273438 138.609375 C 1826.476562 138.609375 1805.328125 144.179688 1785.953125 155.316406 C 1766.511719 166.457031 1750.742188 182.785156 1738.585938 204.179688 C 1726.554688 225.636719 1720.601562 251.015625 1720.601562 280.382812 C 1720.601562 309.753906 1726.554688 335.511719 1738.585938 357.601562 C 1750.742188 379.5625 1766.574219 396.464844 1786.203125 408.234375 C 1805.960938 419.882812 1826.984375 425.703125 1849.273438 425.703125 C 1872.199219 425.703125 1893.664062 420.070312 1913.609375 408.742188 C 1933.496094 397.285156 1949.390625 380.828125 1961.230469 359.375 C 1973.007812 337.980469 1978.960938 312.21875 1978.960938 282.15625 Z M 1978.960938 282.15625 "/><path style=" stroke:none;fill-rule:nonzero;fill:#2155c9;fill-opacity:1;" d="M 2289.902344 107.460938 C 2305.734375 81.636719 2326.4375 61.382812 2351.957031 46.699219 C 2377.605469 32.015625 2406.921875 24.675781 2439.851562 24.675781 L 2439.851562 154.042969 L 2407.175781 154.042969 C 2368.296875 154.042969 2339.039062 163.160156 2319.285156 181.386719 C 2299.652344 199.617188 2289.902344 231.386719 2289.902344 276.578125 L 2289.902344 519.625 L 2166.546875 519.625 L 2166.546875 31.761719 L 2289.902344 31.761719 Z M 2289.902344 107.460938 "/><path style=" stroke:none;fill-rule:nonzero;fill:#2155c9;fill-opacity:1;" d="M 2733.644531 405.949219 L 2857 31.761719 L 2988.203125 31.761719 L 2807.605469 519.625 L 2657.910156 519.625 L 2478.074219 31.761719 L 2610.292969 31.761719 Z M 2733.644531 405.949219 "/><path style=" stroke:none;fill-rule:nonzero;fill:#2155c9;fill-opacity:1;" d="M 2963.8125 270.636719 C 2963.8125 221.394531 2973.5625 177.660156 2993.195312 139.492188 C 3012.949219 101.390625 3039.671875 72.023438 3073.488281 51.390625 C 3107.238281 30.820312 3144.980469 20.503906 3186.710938 20.503906 C 3223.183594 20.503906 3254.972656 27.847656 3282.203125 42.53125 C 3309.558594 57.214844 3331.46875 75.695312 3348.058594 97.972656 L 3348.058594 28.605469 L 3472.171875 28.605469 L 3472.171875 516.464844 L 3348.058594 516.464844 L 3348.058594 445.070312 C 3332.164062 468.046875 3310.191406 487.035156 3282.203125 502.035156 C 3254.339844 516.84375 3222.234375 524.3125 3185.949219 524.3125 C 3144.726562 524.3125 3107.238281 513.808594 3073.488281 492.667969 C 3039.671875 471.589844 3012.949219 441.78125 2993.195312 403.296875 C 2973.5625 364.816406 2963.8125 320.636719 2963.8125 270.636719 Z M 3348.058594 272.410156 C 3348.058594 242.535156 3342.105469 216.902344 3330.328125 195.445312 C 3318.484375 174.050781 3302.589844 157.597656 3282.707031 146.078125 C 3262.761719 134.621094 3241.292969 128.859375 3218.371094 128.859375 C 3195.574219 128.859375 3174.425781 134.429688 3155.046875 145.570312 C 3135.609375 156.710938 3119.839844 173.039062 3107.683594 194.433594 C 3095.652344 215.886719 3089.699219 241.269531 3089.699219 270.636719 C 3089.699219 300.003906 3095.652344 325.765625 3107.683594 347.851562 C 3119.839844 369.816406 3135.671875 386.714844 3155.300781 398.488281 C 3175.058594 410.132812 3196.082031 415.957031 3218.371094 415.957031 C 3241.292969 415.957031 3262.761719 410.324219 3282.707031 398.992188 C 3302.589844 387.539062 3318.484375 371.082031 3330.328125 349.625 C 3342.105469 328.234375 3348.058594 302.472656 3348.058594 272.410156 Z M 3348.058594 272.410156 "/><path style=" stroke:none;fill-rule:nonzero;fill:#2155c9;fill-opacity:1;" d="M 1366.546875 24.675781 C 1424.804688 24.675781 1471.789062 43.09375 1507.632812 79.867188 C 1543.410156 116.511719 1561.328125 167.652344 1561.328125 233.285156 L 1561.328125 519.625 L 1437.976562 519.625 L 1437.976562 249.996094 C 1437.976562 211.386719 1428.222656 181.640625 1408.847656 160.878906 C 1389.40625 139.992188 1363 129.488281 1329.566406 129.488281 C 1295.433594 129.488281 1268.523438 139.992188 1248.765625 160.878906 C 1229.136719 181.640625 1219.382812 211.386719 1219.382812 249.996094 L 1219.382812 519.625 L 1096.03125 519.625 L 1096.03125 31.761719 L 1219.382812 31.761719 L 1219.382812 92.523438 C 1235.910156 71.257812 1256.933594 54.675781 1282.453125 42.648438 C 1307.910156 30.6875 1335.960938 24.675781 1366.546875 24.675781 Z M 1366.546875 24.675781 "/></g></g></g></g></svg>