<svg id="visual" viewBox="0 0 900 600" width="900" height="600" xmlns="http://www.w3.org/2000/svg" xmlns:xlink="http://www.w3.org/1999/xlink" version="1.1"><path d="M0 431L21.5 426.5C43 422 86 413 128.8 404.8C171.7 396.7 214.3 389.3 257.2 385C300 380.7 343 379.3 385.8 387C428.7 394.7 471.3 411.3 514.2 409.3C557 407.3 600 386.7 642.8 376C685.7 365.3 728.3 364.7 771.2 367.2C814 369.7 857 375.3 878.5 378.2L900 381L900 601L878.5 601C857 601 814 601 771.2 601C728.3 601 685.7 601 642.8 601C600 601 557 601 514.2 601C471.3 601 428.7 601 385.8 601C343 601 300 601 257.2 601C214.3 601 171.7 601 128.8 601C86 601 43 601 21.5 601L0 601Z" fill="#267df4"></path><path d="M0 466L21.5 454.5C43 443 86 420 128.8 422.2C171.7 424.3 214.3 451.7 257.2 457C300 462.3 343 445.7 385.8 438.2C428.7 430.7 471.3 432.3 514.2 437.7C557 443 600 452 642.8 452.5C685.7 453 728.3 445 771.2 440C814 435 857 433 878.5 432L900 431L900 601L878.5 601C857 601 814 601 771.2 601C728.3 601 685.7 601 642.8 601C600 601 557 601 514.2 601C471.3 601 428.7 601 385.8 601C343 601 300 601 257.2 601C214.3 601 171.7 601 128.8 601C86 601 43 601 21.5 601L0 601Z" fill="#2473ea"></path><path d="M0 458L21.5 459.2C43 460.3 86 462.7 128.8 469.8C171.7 477 214.3 489 257.2 487.2C300 485.3 343 469.7 385.8 465.3C428.7 461 471.3 468 514.2 476C557 484 600 493 642.8 492.8C685.7 492.7 728.3 483.3 771.2 483.7C814 484 857 494 878.5 499L900 504L900 601L878.5 601C857 601 814 601 771.2 601C728.3 601 685.7 601 642.8 601C600 601 557 601 514.2 601C471.3 601 428.7 601 385.8 601C343 601 300 601 257.2 601C214.3 601 171.7 601 128.8 601C86 601 43 601 21.5 601L0 601Z" fill="#2369df"></path><path d="M0 496L21.5 500.2C43 504.3 86 512.7 128.8 520.3C171.7 528 214.3 535 257.2 537.2C300 539.3 343 536.7 385.8 535.3C428.7 534 471.3 534 514.2 529.7C557 525.3 600 516.7 642.8 513.3C685.7 510 728.3 512 771.2 513.2C814 514.3 857 514.7 878.5 514.8L900 515L900 601L878.5 601C857 601 814 601 771.2 601C728.3 601 685.7 601 642.8 601C600 601 557 601 514.2 601C471.3 601 428.7 601 385.8 601C343 601 300 601 257.2 601C214.3 601 171.7 601 128.8 601C86 601 43 601 21.5 601L0 601Z" fill="#225fd4"></path><path d="M0 567L21.5 567.3C43 567.7 86 568.3 128.8 564.5C171.7 560.7 214.3 552.3 257.2 545.3C300 538.3 343 532.7 385.8 537.5C428.7 542.3 471.3 557.7 514.2 559.2C557 560.7 600 548.3 642.8 548C685.7 547.7 728.3 559.3 771.2 560.3C814 561.3 857 551.7 878.5 546.8L900 542L900 601L878.5 601C857 601 814 601 771.2 601C728.3 601 685.7 601 642.8 601C600 601 557 601 514.2 601C471.3 601 428.7 601 385.8 601C343 601 300 601 257.2 601C214.3 601 171.7 601 128.8 601C86 601 43 601 21.5 601L0 601Z" fill="#2155c9"></path></svg>