<svg xmlns="http://www.w3.org/2000/svg" xmlns:xlink="http://www.w3.org/1999/xlink" width="2048" zoomAndPan="magnify" viewBox="0 0 1536 1535.999932" height="2048" preserveAspectRatio="xMidYMid meet" version="1.0"><defs><clipPath id="f05103934f"><path d="M 288.824219 315 L 1030 315 L 1030 1306 L 288.824219 1306 Z M 288.824219 315 " clip-rule="nonzero"/></clipPath></defs><rect x="-153.6" width="1843.2" fill="#ffffff" y="-153.599993" height="1843.199919" fill-opacity="1"/><rect x="-153.6" width="1843.2" fill="#000000" y="-153.599993" height="1843.199919" fill-opacity="1"/><path fill="#ffffff" d="M 1242.695312 1333.773438 C 1136.367188 1257.917969 1052.433594 1165.011719 1032.824219 1032.074219 C 1020.058594 945.46875 1019.308594 856.800781 1017.386719 768.957031 C 1013.828125 607.714844 947.414062 480.257812 819.277344 383.835938 C 816.019531 381.402344 812.765625 378.964844 809.296875 376.832031 C 808.078125 376.082031 806.25 376.316406 801.730469 375.660156 C 853.734375 523.828125 876.082031 673.917969 842.539062 830.191406 C 838.648438 821.03125 834.644531 811.917969 830.847656 802.710938 C 767.222656 647.984375 688.933594 502.136719 573.1875 379.199219 C 484.734375 285.238281 402.089844 235.410156 291.800781 207.957031 C 291.753906 205.542969 291.730469 203.109375 291.707031 200.671875 C 348.605469 200.671875 405.625 198.445312 462.410156 201.09375 C 616.082031 208.308594 764.414062 239.839844 902.929688 308.898438 C 1046.808594 380.628906 1157.683594 483.863281 1208.796875 641.144531 C 1247.238281 759.492188 1240.9375 878.84375 1214.117188 998.339844 C 1205.214844 1038.023438 1193.59375 1077.355469 1188.160156 1117.507812 C 1178.835938 1186.214844 1196.40625 1250.046875 1232.503906 1308.917969 C 1236.722656 1315.804688 1240.703125 1322.878906 1244.664062 1329.929688 C 1244.851562 1330.304688 1244.03125 1331.242188 1242.695312 1333.773438 Z M 1242.695312 1333.773438 " fill-opacity="1" fill-rule="nonzero"/><g clip-path="url(#f05103934f)"><path fill="#ffffff" d="M 288.824219 315.855469 C 380.300781 391.730469 431.722656 487.894531 432.707031 607.761719 C 433.171875 663.9375 429.542969 720.136719 427.714844 776.335938 C 424.390625 878.539062 468.851562 954.910156 553.605469 1009.535156 C 558.382812 1012.628906 563.164062 1015.769531 568.175781 1018.460938 C 570.121094 1019.515625 572.671875 1019.492188 574.171875 1019.796875 C 566.886719 950.152344 556.183594 880.835938 553.324219 811.191406 C 550.464844 741.5 555.410156 671.480469 561.382812 600.59375 C 666.304688 847.546875 815.902344 1058.941406 1029.734375 1222.617188 C 886.554688 1317.492188 722.832031 1337.589844 576.09375 1250.210938 C 427.621094 1161.804688 341.695312 1034.460938 335.980469 858.488281 C 334.292969 806.390625 332.375 754.195312 333.707031 702.121094 C 337.058594 571.40625 336.472656 441.417969 288.824219 315.855469 Z M 288.824219 315.855469 " fill-opacity="1" fill-rule="nonzero"/></g></svg>