<svg xmlns="http://www.w3.org/2000/svg" version="1.1" xmlns:xlink="http://www.w3.org/1999/xlink" width="1000" height="1000"><style>
    #light-icon {
      display: inline;
    }
    #dark-icon {
      display: none;
    }

    @media (prefers-color-scheme: dark) {
      #light-icon {
        display: none;
      }
      #dark-icon {
        display: inline;
      }
    }
  </style><g id="light-icon"><svg xmlns="http://www.w3.org/2000/svg" version="1.1" xmlns:xlink="http://www.w3.org/1999/xlink" width="1000" height="1000"><g clip-path="url(#SvgjsClipPath1056)"><rect width="1000" height="1000" fill="#ffffff"></rect><g transform="matrix(0.48828125,0,0,0.48828125,0,0)"><svg xmlns="http://www.w3.org/2000/svg" version="1.1" xmlns:xlink="http://www.w3.org/1999/xlink" width="2048" height="2048"><svg xmlns="http://www.w3.org/2000/svg" xmlns:xlink="http://www.w3.org/1999/xlink" width="2048" zoomAndPan="magnify" viewBox="0 0 1536 1535.999932" height="2048" preserveAspectRatio="xMidYMid meet" version="1.0"><defs><linearGradient x1="0" gradientTransform="matrix(0.75, 0, 0, 0.75, 0.00003385, -0.00002)" y1="1024" x2="2047.999915" gradientUnits="userSpaceOnUse" y2="1024" id="6385943ea1"><stop stop-opacity="1" stop-color="rgb(14.898682%, 49.01886%, 95.689392%)" offset="0"></stop><stop stop-opacity="1" stop-color="rgb(14.883423%, 48.89679%, 95.556641%)" offset="0.015625"></stop><stop stop-opacity="1" stop-color="rgb(14.852905%, 48.651123%, 95.292664%)" offset="0.03125"></stop><stop stop-opacity="1" stop-color="rgb(14.822388%, 48.405457%, 95.030212%)" offset="0.046875"></stop><stop stop-opacity="1" stop-color="rgb(14.79187%, 48.161316%, 94.766235%)" offset="0.0625"></stop><stop stop-opacity="1" stop-color="rgb(14.761353%, 47.915649%, 94.502258%)" offset="0.078125"></stop><stop stop-opacity="1" stop-color="rgb(14.730835%, 47.669983%, 94.238281%)" offset="0.09375"></stop><stop stop-opacity="1" stop-color="rgb(14.700317%, 47.425842%, 93.97583%)" offset="0.109375"></stop><stop stop-opacity="1" stop-color="rgb(14.6698%, 47.180176%, 93.711853%)" offset="0.125"></stop><stop stop-opacity="1" stop-color="rgb(14.639282%, 46.934509%, 93.447876%)" offset="0.140625"></stop><stop stop-opacity="1" stop-color="rgb(14.608765%, 46.690369%, 93.183899%)" offset="0.15625"></stop><stop stop-opacity="1" stop-color="rgb(14.578247%, 46.444702%, 92.921448%)" offset="0.171875"></stop><stop stop-opacity="1" stop-color="rgb(14.547729%, 46.199036%, 92.657471%)" offset="0.1875"></stop><stop stop-opacity="1" stop-color="rgb(14.515686%, 45.954895%, 92.393494%)" offset="0.203125"></stop><stop stop-opacity="1" stop-color="rgb(14.485168%, 45.709229%, 92.129517%)" offset="0.21875"></stop><stop stop-opacity="1" stop-color="rgb(14.454651%, 45.463562%, 91.867065%)" offset="0.234375"></stop><stop stop-opacity="1" stop-color="rgb(14.424133%, 45.219421%, 91.603088%)" offset="0.25"></stop><stop stop-opacity="1" stop-color="rgb(14.393616%, 44.973755%, 91.339111%)" offset="0.265625"></stop><stop stop-opacity="1" stop-color="rgb(14.363098%, 44.728088%, 91.075134%)" offset="0.28125"></stop><stop stop-opacity="1" stop-color="rgb(14.332581%, 44.483948%, 90.812683%)" offset="0.296875"></stop><stop stop-opacity="1" stop-color="rgb(14.302063%, 44.238281%, 90.548706%)" offset="0.3125"></stop><stop stop-opacity="1" stop-color="rgb(14.271545%, 43.992615%, 90.284729%)" offset="0.328125"></stop><stop stop-opacity="1" stop-color="rgb(14.241028%, 43.748474%, 90.020752%)" offset="0.34375"></stop><stop stop-opacity="1" stop-color="rgb(14.21051%, 43.502808%, 89.758301%)" offset="0.359375"></stop><stop stop-opacity="1" stop-color="rgb(14.179993%, 43.257141%, 89.494324%)" offset="0.375"></stop><stop stop-opacity="1" stop-color="rgb(14.149475%, 43.013%, 89.230347%)" offset="0.390625"></stop><stop stop-opacity="1" stop-color="rgb(14.118958%, 42.767334%, 88.96637%)" offset="0.40625"></stop><stop stop-opacity="1" stop-color="rgb(14.086914%, 42.521667%, 88.703918%)" offset="0.421875"></stop><stop stop-opacity="1" stop-color="rgb(14.056396%, 42.277527%, 88.439941%)" offset="0.4375"></stop><stop stop-opacity="1" stop-color="rgb(14.025879%, 42.03186%, 88.175964%)" offset="0.453125"></stop><stop stop-opacity="1" stop-color="rgb(13.995361%, 41.786194%, 87.911987%)" offset="0.46875"></stop><stop stop-opacity="1" stop-color="rgb(13.964844%, 41.542053%, 87.649536%)" offset="0.484375"></stop><stop stop-opacity="1" stop-color="rgb(13.934326%, 41.296387%, 87.385559%)" offset="0.5"></stop><stop stop-opacity="1" stop-color="rgb(13.903809%, 41.05072%, 87.121582%)" offset="0.515625"></stop><stop stop-opacity="1" stop-color="rgb(13.873291%, 40.80658%, 86.857605%)" offset="0.53125"></stop><stop stop-opacity="1" stop-color="rgb(13.842773%, 40.560913%, 86.595154%)" offset="0.546875"></stop><stop stop-opacity="1" stop-color="rgb(13.812256%, 40.315247%, 86.331177%)" offset="0.5625"></stop><stop stop-opacity="1" stop-color="rgb(13.781738%, 40.071106%, 86.0672%)" offset="0.578125"></stop><stop stop-opacity="1" stop-color="rgb(13.751221%, 39.825439%, 85.803223%)" offset="0.59375"></stop><stop stop-opacity="1" stop-color="rgb(13.720703%, 39.579773%, 85.540771%)" offset="0.609375"></stop><stop stop-opacity="1" stop-color="rgb(13.690186%, 39.335632%, 85.276794%)" offset="0.625"></stop><stop stop-opacity="1" stop-color="rgb(13.658142%, 39.089966%, 85.012817%)" offset="0.640625"></stop><stop stop-opacity="1" stop-color="rgb(13.627625%, 38.844299%, 84.74884%)" offset="0.65625"></stop><stop stop-opacity="1" stop-color="rgb(13.597107%, 38.600159%, 84.486389%)" offset="0.671875"></stop><stop stop-opacity="1" stop-color="rgb(13.566589%, 38.354492%, 84.222412%)" offset="0.6875"></stop><stop stop-opacity="1" stop-color="rgb(13.536072%, 38.108826%, 83.958435%)" offset="0.703125"></stop><stop stop-opacity="1" stop-color="rgb(13.505554%, 37.864685%, 83.694458%)" offset="0.71875"></stop><stop stop-opacity="1" stop-color="rgb(13.475037%, 37.619019%, 83.432007%)" offset="0.734375"></stop><stop stop-opacity="1" stop-color="rgb(13.444519%, 37.373352%, 83.16803%)" offset="0.75"></stop><stop stop-opacity="1" stop-color="rgb(13.414001%, 37.129211%, 82.904053%)" offset="0.765625"></stop><stop stop-opacity="1" stop-color="rgb(13.383484%, 36.883545%, 82.640076%)" offset="0.78125"></stop><stop stop-opacity="1" stop-color="rgb(13.352966%, 36.637878%, 82.377625%)" offset="0.796875"></stop><stop stop-opacity="1" stop-color="rgb(13.322449%, 36.393738%, 82.113647%)" offset="0.8125"></stop><stop stop-opacity="1" stop-color="rgb(13.291931%, 36.148071%, 81.84967%)" offset="0.828125"></stop><stop stop-opacity="1" stop-color="rgb(13.261414%, 35.902405%, 81.585693%)" offset="0.84375"></stop><stop stop-opacity="1" stop-color="rgb(13.22937%, 35.658264%, 81.323242%)" offset="0.859375"></stop><stop stop-opacity="1" stop-color="rgb(13.198853%, 35.412598%, 81.059265%)" offset="0.875"></stop><stop stop-opacity="1" stop-color="rgb(13.168335%, 35.166931%, 80.795288%)" offset="0.890625"></stop><stop stop-opacity="1" stop-color="rgb(13.137817%, 34.922791%, 80.531311%)" offset="0.90625"></stop><stop stop-opacity="1" stop-color="rgb(13.1073%, 34.677124%, 80.26886%)" offset="0.921875"></stop><stop stop-opacity="1" stop-color="rgb(13.076782%, 34.431458%, 80.004883%)" offset="0.9375"></stop><stop stop-opacity="1" stop-color="rgb(13.046265%, 34.187317%, 79.740906%)" offset="0.953125"></stop><stop stop-opacity="1" stop-color="rgb(13.015747%, 33.94165%, 79.476929%)" offset="0.96875"></stop><stop stop-opacity="1" stop-color="rgb(12.985229%, 33.695984%, 79.214478%)" offset="0.984375"></stop><stop stop-opacity="1" stop-color="rgb(12.954712%, 33.451843%, 78.9505%)" offset="1"></stop></linearGradient><clipPath id="d5692517a9"><path d="M 298.144531 324 L 1025 324 L 1025 1296 L 298.144531 1296 Z M 298.144531 324 " clip-rule="nonzero"></path></clipPath><clipPath id="SvgjsClipPath1056"><rect width="1000" height="1000" x="0" y="0" rx="300" ry="300"></rect></clipPath></defs><rect x="-153.6" width="1843.2" fill="#ffffff" y="-153.599993" height="1843.199919" fill-opacity="1"></rect><rect x="-153.6" fill="url(#6385943ea1)" width="1843.2" y="-153.599993" height="1843.199919"></rect><path fill="#ffffff" d="M 1233.457031 1322.769531 C 1129.199219 1248.394531 1046.898438 1157.292969 1027.671875 1026.941406 C 1015.152344 942.019531 1014.417969 855.078125 1012.535156 768.941406 C 1009.042969 610.839844 943.921875 485.859375 818.277344 391.3125 C 815.082031 388.925781 811.890625 386.535156 808.492188 384.445312 C 807.296875 383.710938 805.503906 383.941406 801.070312 383.296875 C 852.066406 528.582031 873.976562 675.75 841.085938 828.984375 C 837.273438 820.003906 833.34375 811.066406 829.625 802.039062 C 767.238281 650.324219 690.472656 507.3125 576.976562 386.765625 C 490.242188 294.632812 409.203125 245.777344 301.058594 218.855469 C 301.015625 216.488281 300.992188 214.101562 300.96875 211.710938 C 356.761719 211.710938 412.671875 209.53125 468.351562 212.125 C 619.035156 219.199219 764.480469 250.117188 900.300781 317.832031 C 1041.382812 388.167969 1150.101562 489.394531 1200.222656 643.617188 C 1237.914062 759.660156 1231.734375 876.691406 1205.4375 993.863281 C 1196.707031 1032.773438 1185.3125 1071.339844 1179.984375 1110.710938 C 1170.84375 1178.082031 1188.070312 1240.675781 1223.46875 1298.398438 C 1227.601562 1305.152344 1231.507812 1312.089844 1235.386719 1319.003906 C 1235.570312 1319.371094 1234.769531 1320.289062 1233.457031 1322.769531 Z M 1233.457031 1322.769531 " fill-opacity="1" fill-rule="nonzero"></path><g clip-path="url(#d5692517a9)"><path fill="#ffffff" d="M 298.144531 324.65625 C 387.839844 399.054688 438.261719 493.347656 439.226562 610.882812 C 439.683594 665.964844 436.125 721.070312 434.332031 776.175781 C 431.070312 876.394531 474.667969 951.277344 557.773438 1004.84375 C 562.460938 1007.875 567.144531 1010.953125 572.058594 1013.59375 C 573.96875 1014.628906 576.472656 1014.605469 577.941406 1014.902344 C 570.796875 946.613281 560.300781 878.644531 557.496094 810.355469 C 554.695312 742.019531 559.542969 673.363281 565.398438 603.855469 C 668.28125 846.003906 814.96875 1053.285156 1024.636719 1213.777344 C 884.246094 1306.808594 723.707031 1326.515625 579.824219 1240.835938 C 434.242188 1154.148438 349.988281 1029.28125 344.382812 856.730469 C 342.726562 805.648438 340.84375 754.46875 342.152344 703.40625 C 345.4375 575.234375 344.863281 447.773438 298.144531 324.65625 Z M 298.144531 324.65625 " fill-opacity="1" fill-rule="nonzero"></path></g></svg></svg></g></g></svg></g><g id="dark-icon"><svg xmlns="http://www.w3.org/2000/svg" version="1.1" xmlns:xlink="http://www.w3.org/1999/xlink" width="1000" height="1000"><g clip-path="url(#SvgjsClipPath1057)"><rect width="1000" height="1000" fill="#ffffff"></rect><g transform="matrix(0.48828125,0,0,0.48828125,0,0)"><svg xmlns="http://www.w3.org/2000/svg" version="1.1" xmlns:xlink="http://www.w3.org/1999/xlink" width="2048" height="2048"><svg xmlns="http://www.w3.org/2000/svg" xmlns:xlink="http://www.w3.org/1999/xlink" width="2048" zoomAndPan="magnify" viewBox="0 0 1536 1535.999932" height="2048" preserveAspectRatio="xMidYMid meet" version="1.0"><defs><clipPath id="f05103934f"><path d="M 288.824219 315 L 1030 315 L 1030 1306 L 288.824219 1306 Z M 288.824219 315 " clip-rule="nonzero"></path></clipPath><clipPath id="SvgjsClipPath1057"><rect width="1000" height="1000" x="0" y="0" rx="300" ry="300"></rect></clipPath></defs><rect x="-153.6" width="1843.2" fill="#ffffff" y="-153.599993" height="1843.199919" fill-opacity="1"></rect><rect x="-153.6" width="1843.2" fill="#000000" y="-153.599993" height="1843.199919" fill-opacity="1"></rect><path fill="#ffffff" d="M 1242.695312 1333.773438 C 1136.367188 1257.917969 1052.433594 1165.011719 1032.824219 1032.074219 C 1020.058594 945.46875 1019.308594 856.800781 1017.386719 768.957031 C 1013.828125 607.714844 947.414062 480.257812 819.277344 383.835938 C 816.019531 381.402344 812.765625 378.964844 809.296875 376.832031 C 808.078125 376.082031 806.25 376.316406 801.730469 375.660156 C 853.734375 523.828125 876.082031 673.917969 842.539062 830.191406 C 838.648438 821.03125 834.644531 811.917969 830.847656 802.710938 C 767.222656 647.984375 688.933594 502.136719 573.1875 379.199219 C 484.734375 285.238281 402.089844 235.410156 291.800781 207.957031 C 291.753906 205.542969 291.730469 203.109375 291.707031 200.671875 C 348.605469 200.671875 405.625 198.445312 462.410156 201.09375 C 616.082031 208.308594 764.414062 239.839844 902.929688 308.898438 C 1046.808594 380.628906 1157.683594 483.863281 1208.796875 641.144531 C 1247.238281 759.492188 1240.9375 878.84375 1214.117188 998.339844 C 1205.214844 1038.023438 1193.59375 1077.355469 1188.160156 1117.507812 C 1178.835938 1186.214844 1196.40625 1250.046875 1232.503906 1308.917969 C 1236.722656 1315.804688 1240.703125 1322.878906 1244.664062 1329.929688 C 1244.851562 1330.304688 1244.03125 1331.242188 1242.695312 1333.773438 Z M 1242.695312 1333.773438 " fill-opacity="1" fill-rule="nonzero"></path><g clip-path="url(#f05103934f)"><path fill="#ffffff" d="M 288.824219 315.855469 C 380.300781 391.730469 431.722656 487.894531 432.707031 607.761719 C 433.171875 663.9375 429.542969 720.136719 427.714844 776.335938 C 424.390625 878.539062 468.851562 954.910156 553.605469 1009.535156 C 558.382812 1012.628906 563.164062 1015.769531 568.175781 1018.460938 C 570.121094 1019.515625 572.671875 1019.492188 574.171875 1019.796875 C 566.886719 950.152344 556.183594 880.835938 553.324219 811.191406 C 550.464844 741.5 555.410156 671.480469 561.382812 600.59375 C 666.304688 847.546875 815.902344 1058.941406 1029.734375 1222.617188 C 886.554688 1317.492188 722.832031 1337.589844 576.09375 1250.210938 C 427.621094 1161.804688 341.695312 1034.460938 335.980469 858.488281 C 334.292969 806.390625 332.375 754.195312 333.707031 702.121094 C 337.058594 571.40625 336.472656 441.417969 288.824219 315.855469 Z M 288.824219 315.855469 " fill-opacity="1" fill-rule="nonzero"></path></g></svg></svg></g></g></svg></g></svg>